<svg width="20" height="20" viewBox="0 0 20 20" fill="none" xmlns="http://www.w3.org/2000/svg">
<path d="M10.1 20C8.7 20 7.3875 19.7333 6.1625 19.2C4.9375 18.6667 3.87083 17.9458 2.9625 17.0375C2.05417 16.1292 1.33333 15.0625 0.8 13.8375C0.266667 12.6125 0 11.3 0 9.9C0 7.46667 0.775 5.32083 2.325 3.4625C3.875 1.60417 5.85 0.45 8.25 0C7.95 1.63333 8.04167 3.23863 8.525 4.81588C9.00833 6.39313 9.84167 7.77426 11.025 8.95928C12.2083 10.1443 13.5875 10.9788 15.1625 11.4629C16.7375 11.9469 18.35 12.0387 20 11.7382C19.5667 14.1417 18.4167 16.1195 16.55 17.6717C14.6833 19.2239 12.5333 20 10.1 20ZM10.1 18.5C11.7667 18.5 13.2833 18.025 14.65 17.075C16.0167 16.125 17.1167 14.9167 17.95 13.45C16.45 13.3167 15.0083 12.9708 13.625 12.4125C12.2417 11.8542 11.0208 11.05 9.9625 10C8.90417 8.95 8.1 7.7375 7.55 6.3625C7 4.9875 6.65833 3.55833 6.525 2.075C5.05833 2.875 3.85417 3.9625 2.9125 5.3375C1.97083 6.7125 1.5 8.23333 1.5 9.9C1.5 12.2889 2.33611 14.3194 4.00833 15.9917C5.68056 17.6639 7.71112 18.5 10.1 18.5Z" fill="#6B6B6B"/>
</svg>
